# xmcd
#
# Track frame offsets:
#	150
#	21772
#	33657
#	48067
#	63475
#	86135
#	103342
#	124447
#	142415
#	163700
#	182477
#
# Disc length: 2706 seconds
# Revision: 0
# Processed by: cddbd v1.5.2PL0 Copyright (c) Steve Scherf et al.
# Submitted via: dBpowerAMP V12.0
#
DISCID=a10a900b
DTITLE=Jimmy Reeves Jr. - Born To Love Me
DYEAR=1970
DGENRE=Blues
TTITLE0=Love That Woman
TTITLE1=Hoo Doo Blues
TTITLE2=Put It All In There
TTITLE3=Born To Love Me
TTITLE4=I Love You Baby
TTITLE5=Bright Lights, Big City
TTITLE6=Baby, What's On Your Mind
TTITLE7=Don't Let That Music Die
TTITLE8=Shame, Shame, Shame
TTITLE9=Honest I Do
TTITLE10=Baby, Whatcha Wan't Me To Do
EXTD=
EXTT0=
EXTT1=
EXTT2=
EXTT3=
EXTT4=
EXTT5=
EXTT6=
EXTT7=
EXTT8=
EXTT9=
EXTT10=
PLAYORDER=
